<svg width="505" height="144" viewBox="0 0 505 144" fill="none" xmlns="http://www.w3.org/2000/svg">
<path d="M132.375 105.875V111.5H80.875V105.875H103.188V98.75C98.4688 99.4688 94.1562 99.5625 88.9375 99.5625H85.5625V80.3125H105V85.8125H92.5625V94.0625C97.0625 93.9688 101.062 93.6562 105.562 92.75L106.188 97.75H108.25V80.3125H127.5V85.8125H115.25V94H127.812V99.5625H110.188V105.875H132.375ZM125.812 116.625V134.75H118.812V122.188H86.4375V116.625H125.812ZM187.688 105.875V111.5H136.188V105.875H158.5V98.75C153.781 99.4688 149.469 99.5625 144.25 99.5625H140.875V80.3125H160.312V85.8125H147.875V94.0625C152.375 93.9688 156.375 93.6562 160.875 92.75L161.5 97.75H163.562V80.3125H182.812V85.8125H170.562V94H183.125V99.5625H165.5V105.875H187.688ZM181.125 116.625V134.75H174.125V122.188H141.75V116.625H181.125Z" fill="url(#paint0_linear_784_915)"/>
<path d="M210.297 91.6875C219.766 91.6875 225.297 94.2188 225.297 98.9062C225.297 103.594 219.766 106.172 210.297 106.172C200.828 106.172 195.297 103.594 195.297 98.9062C195.297 94.2188 200.828 91.6875 210.297 91.6875ZM210.297 94.9688C203.594 94.9688 199.891 96.4219 199.938 98.9062C199.891 101.484 203.594 102.844 210.297 102.844C217 102.844 220.703 101.484 220.703 98.9062C220.703 96.4219 217 94.9688 210.297 94.9688ZM229.469 108.75V112.312H191.172V108.75H229.469ZM224.641 115.547V125.391H200.172V129.141H225.812V132.562H195.812V122.156H220.234V118.875H195.766V115.547H224.641ZM256.938 103.875C256.938 110.484 259.984 117.234 265.797 120.328L263.312 123.609C259.258 121.453 256.422 117.422 254.922 112.641C253.398 117.773 250.586 122.18 246.531 124.594L243.906 121.219C249.719 117.844 252.719 110.672 252.766 103.875V102.188H245.172V98.5312H252.766V92.4844H256.938V98.5312H264.391V102.188H256.938V103.875ZM280.422 90.9844V132.984H276.156V90.9844H280.422ZM271.891 91.875V130.875H267.672V111.047H261.625V107.344H267.672V91.875H271.891ZM320.875 90.9844V116.438H316.422V107.297H309.859V103.594H316.422V90.9844H320.875ZM320.875 118.5V132.469H293.172V118.5H320.875ZM297.578 122.016V128.859H316.516V122.016H297.578ZM310.516 95.1562V98.7188H285.906V95.1562H296.031V90.6094H300.438V95.1562H310.516ZM298.234 100.641C304 100.641 308.078 103.734 308.078 108.141C308.078 112.688 304 115.641 298.234 115.688C292.469 115.641 288.344 112.688 288.344 108.141C288.344 103.734 292.469 100.641 298.234 100.641ZM298.234 104.062C294.859 104.016 292.609 105.656 292.609 108.141C292.609 110.719 294.859 112.312 298.234 112.312C301.562 112.312 303.812 110.719 303.812 108.141C303.812 105.656 301.562 104.016 298.234 104.062ZM348.109 97.9219V101.531H327.25V97.9219H335.5V92.2031H339.906V97.9219H348.109ZM337.703 104.062C343.047 104.062 346.797 108.047 346.844 113.719C346.797 119.438 343.047 123.469 337.703 123.469C332.453 123.469 328.562 119.438 328.609 113.719C328.562 108.047 332.453 104.062 337.703 104.062ZM337.703 107.766C334.656 107.766 332.547 110.25 332.547 113.719C332.547 117.281 334.656 119.672 337.703 119.672C340.703 119.672 342.906 117.281 342.906 113.719C342.906 110.25 340.703 107.766 337.703 107.766ZM363.297 90.9844V132.984H359.078V112.125H354.25V131.016H350.031V91.9219H354.25V108.469H359.078V90.9844H363.297ZM407.266 124.078V127.781H368.828V124.078H385.75V115.453H373.234V93.8438H377.688V101.062H398.312V93.8438H402.719V115.453H390.156V124.078H407.266ZM377.688 111.844H398.312V104.672H377.688V111.844ZM423.109 102.469C423.109 109.172 425.922 116.344 431.547 119.766L429.062 123.188C425.125 120.82 422.453 116.625 421.047 111.75C419.477 117.094 416.594 121.641 412.516 124.125L409.75 120.797C415.703 117.234 418.797 109.828 418.797 102.656V94.8281H423.109V102.469ZM446.453 90.9844V132.984H442.188V90.9844H446.453ZM437.734 91.7812V130.922H433.516V109.453H427V105.75H433.516V91.7812H437.734ZM490.234 124.031V127.734H451.797V124.031H460.984V113.062C457.539 111.164 455.453 108.141 455.453 104.391C455.453 97.7812 461.922 93.4219 470.922 93.4219C479.969 93.4219 486.438 97.7812 486.438 104.391C486.438 108.094 484.422 111.07 481.047 112.969V124.031H490.234ZM470.922 96.9844C464.312 96.9844 459.766 99.8438 459.766 104.391C459.766 108.891 464.312 111.844 470.922 111.844C477.484 111.844 482.125 108.891 482.125 104.391C482.125 99.8438 477.484 96.9844 470.922 96.9844ZM465.391 124.031H476.547V114.656C474.836 115.102 472.938 115.312 470.922 115.312C468.953 115.312 467.078 115.102 465.391 114.703V124.031ZM501.016 95.0625L500.594 119.203H495.953L495.531 95.0625H501.016ZM498.297 129.328C496.469 129.328 494.922 127.828 494.969 126C494.922 124.172 496.469 122.672 498.297 122.672C500.078 122.672 501.625 124.172 501.625 126C501.625 127.828 500.078 129.328 498.297 129.328Z" fill="white"/>
<path d="M17.3906 19.8438C17.3906 26.7812 21.4688 34.0938 28.3125 36.9531L25.4531 41.0781C20.4375 38.9219 16.7812 34.4688 14.8594 29.0781C12.8906 34.8906 9.1875 39.7656 4.21875 42.1094L1.21875 38.0312C7.92188 34.9375 12.0938 27.0625 12.0938 19.8438V16.2812H2.76562V11.9688H26.6719V16.2812H17.3906V19.8438ZM36.6562 7.79688V50.1719H31.4062V7.79688H36.6562ZM76.875 9.85938V13.1406C76.875 16.4219 76.875 20.1719 75.8438 25.1875H81.6094V29.4062H42.8906V25.1875H70.5938C71.5781 20.6172 71.6719 17.125 71.6719 14.0312H47.6719V9.85938H76.875ZM76.8281 34.3281V49.6562H47.5312V34.3281H76.8281ZM52.6406 38.4062V45.4375H71.6719V38.4062H52.6406ZM128.953 7.79688V23.9219H135.469V28.3281H128.953V50.1719H123.75V7.79688H128.953ZM102.422 11.2656V21.8594H112.406V11.2656H117.609V40.2344H97.2656V11.2656H102.422ZM102.422 35.9688H112.406V25.9375H102.422V35.9688ZM175.969 40.9375V45.25H137.25V40.9375H153.938V34.0469H141.844V20.1719H166.219V14.9219H141.75V10.7031H171.375V24.2969H147.047V29.7812H172.359V34.0469H159.094V40.9375H175.969Z" fill="white"/>
<defs>
<linearGradient id="paint0_linear_784_915" x1="79" y1="88.5" x2="161.35" y2="117.878" gradientUnits="userSpaceOnUse">
<stop stop-color="#C1FF71"/>
<stop offset="1" stop-color="#4CD4FF"/>
</linearGradient>
</defs>
</svg>
