<svg width="347" height="89" viewBox="0 0 347 89" fill="none" xmlns="http://www.w3.org/2000/svg">
<path d="M27.2188 18.0312V21.5938H1.0625V18.0312H11.9375V15.2812C9.875 15.5312 7.84375 15.5625 5.1875 15.5312H3.375V5.40625H13.375V8.90625H7.90625V12.0312C9.9375 11.9688 11.625 11.8281 13.5312 11.5L13.8125 13.9062H14.9688V5.40625H24.7812V8.90625H19.4688V12H24.9375V15.5312H16.4688V18.0312H27.2188ZM23.875 23.7188V33.0312H19.3438V27.2812H3.84375V23.7188H23.875Z" fill="url(#paint0_linear_720_666)"/>
<path d="M54.5938 21.125V23.4688H43.1562V32.6562H40.25V23.4688H28.9688V21.125H54.5938ZM35.0938 5.78125V9.4375H48.4062V5.78125H51.375V17.9375H32.1562V5.78125H35.0938ZM35.0938 15.5625H48.4062V11.8125H35.0938V15.5625ZM79.9688 4.65625V32.7188H77.0312V17.6562H71.9062V15.1875H77.0312V4.65625H79.9688ZM70.25 7.1875V17.1875H60.6562V23.5625C65.125 23.5469 68.5625 23.3906 72.4688 22.6875L72.7188 25.125C68.5312 25.875 64.8438 26.0312 59.9062 26.0625H57.6875V14.7812H67.375V9.59375H57.625V7.1875H70.25ZM94.625 12.9062C94.625 17.5938 97.6875 22.4375 102 24.2812L100.375 26.5938C97.0781 25.1406 94.4531 22.0625 93.1562 18.3125C91.8594 22.3125 89.2188 25.7188 85.9688 27.3125L84.25 24.9688C88.4688 23 91.5938 17.7188 91.625 12.9062V9.9375H85.2188V7.46875H101V9.9375H94.625V12.9062ZM107.5 4.65625V32.6562H104.531V4.65625H107.5ZM134.625 12.8438V15.2188H115.344V5.65625H118.281V12.8438H134.625ZM137.562 18.75V21.125H111.938V18.75H137.562ZM134.812 29.5625V32H115.125V23.7812H118.094V29.5625H134.812ZM158.25 10.0625C158.25 12.7188 160.75 15 164.844 15.875L163.625 18.1875C160.406 17.4688 158.047 15.8594 156.812 13.7188C155.609 16.0469 153.203 17.7969 149.875 18.5625L148.625 16.25C152.75 15.375 155.281 12.8438 155.281 10.0625H149.25V7.71875H155.281V4.71875H158.25V7.71875H164.25V10.0625H158.25ZM170.719 4.6875V32.6562H167.781V4.6875H170.719ZM147.406 20.2812C152.719 20.2812 159.75 20.25 165.844 19.4688L166.062 21.625C163.5 22.0469 160.859 22.3125 158.281 22.4688V31.8125H155.312V22.625C152.625 22.7344 150.062 22.75 147.812 22.75L147.406 20.2812ZM182.844 5.9375C186.531 5.90625 189.375 8.04688 190 11.1875H195.469V4.65625H198.438V19.6875H195.469V13.625H190.031C189.422 16.8438 186.562 19 182.844 19C178.562 19 175.5 16.3125 175.5 12.4375C175.5 8.625 178.562 5.90625 182.844 5.9375ZM182.844 8.40625C180.188 8.40625 178.344 10.0312 178.344 12.4375C178.344 14.8438 180.188 16.5 182.844 16.5C185.438 16.5 187.281 14.8438 187.281 12.4375C187.281 10.0312 185.438 8.40625 182.844 8.40625ZM183.125 21.0312V24.2812H195.469V21.0312H198.438V32.3125H180.188V21.0312H183.125ZM183.125 29.875H195.469V26.625H183.125V29.875ZM207.344 23.2812C207.375 19.1875 208.594 17.9375 210.656 16.6562C211.969 15.8438 212.969 14.7188 212.969 13.0625C212.969 11.0938 211.469 9.875 209.594 9.875C207.906 9.875 206.281 10.9062 206.125 13.2188H202.75C202.875 9.25 205.875 7.0625 209.594 7.0625C213.656 7.0625 216.375 9.5 216.375 13.0625C216.375 15.5625 215.188 17.25 213.188 18.4688C211.312 19.5938 210.594 20.75 210.531 23.2812V23.4688H207.344V23.2812ZM209.062 30.2188C207.844 30.2188 206.812 29.2188 206.844 28C206.812 26.7812 207.844 25.7812 209.062 25.7812C210.25 25.7812 211.281 26.7812 211.281 28C211.281 29.2188 210.25 30.2188 209.062 30.2188Z" fill="white"/>
<path d="M163.328 69.0312V72.5938H137.172V69.0312H148.047V66.2812C145.984 66.5312 143.953 66.5625 141.297 66.5312H139.484V56.4062H149.484V59.9062H144.016V63.0312C146.047 62.9688 147.734 62.8281 149.641 62.5L149.922 64.9062H151.078V56.4062H160.891V59.9062H155.578V63H161.047V66.5312H152.578V69.0312H163.328ZM159.984 74.7188V84.0312H155.453V78.2812H139.953V74.7188H159.984Z" fill="url(#paint1_linear_720_666)"/>
<path d="M186.922 55.6562V66.5H191.422V69H186.922V83.6562H183.953V55.6562H186.922ZM169.109 58V65.1875H176.516V58H179.453V77H166.172V58H169.109ZM169.109 74.5625H176.516V67.5312H169.109V74.5625ZM218.359 71.0312V73.4375H192.734V71.0312H218.359ZM215.734 80.6562V83.0625H196.078V75.4375H199.047V80.6562H215.734ZM215.141 56.5V63.6875H198.953V66.4375H215.703V68.7188H196.016V61.5312H212.172V58.8438H195.953V56.5H215.141ZM237.984 63.9062C237.984 68.3438 240.891 73.2812 245.141 75.2812L243.453 77.5938C240.312 76.0781 237.828 72.9219 236.578 69.25C235.281 73.2656 232.656 76.7188 229.453 78.3125L227.703 75.9688C231.953 73.9375 235.047 68.6562 235.047 63.9062V60.9375H228.734V58.4688H244.078V60.9375H237.984V63.9062ZM250.047 55.6562V66.75H254.547V69.25H250.047V83.6562H247.078V55.6562H250.047ZM264.422 63.3125C264.422 67.7812 266.297 72.5625 270.047 74.8438L268.391 77.125C265.766 75.5469 263.984 72.75 263.047 69.5C262 73.0625 260.078 76.0938 257.359 77.75L255.516 75.5312C259.484 73.1562 261.547 68.2188 261.547 63.4375V58.2188H264.422V63.3125ZM279.984 55.6562V83.6562H277.141V55.6562H279.984ZM274.172 56.1875V82.2812H271.359V67.9688H267.016V65.5H271.359V56.1875H274.172ZM309.141 72.125V74.4688H297.703V83.6562H294.797V74.4688H283.516V72.125H309.141ZM289.641 56.7812V60.4375H302.953V56.7812H305.922V68.9375H286.703V56.7812H289.641ZM289.641 66.5625H302.953V62.8125H289.641V66.5625ZM334.547 55.6562V83.7188H331.609V68.4375H326.047V66H331.609V55.6562H334.547ZM325.578 58.1562V60.5625H315.484V66H324.391V68.375H315.484V74.625C320.172 74.6094 323.422 74.5 327.141 73.8438L327.453 76.25C323.391 76.9062 319.859 77.0625 314.672 77.0938H312.484V58.1562H325.578ZM344.016 58.375L343.734 74.4688H340.641L340.359 58.375H344.016ZM342.203 81.2188C340.984 81.2188 339.953 80.2188 339.984 79C339.953 77.7812 340.984 76.7812 342.203 76.7812C343.391 76.7812 344.422 77.7812 344.422 79C344.422 80.2188 343.391 81.2188 342.203 81.2188Z" fill="white"/>
<defs>
<linearGradient id="paint0_linear_720_666" x1="2.04042" y1="10.597" x2="35.2979" y2="27.734" gradientUnits="userSpaceOnUse">
<stop stop-color="#74C5FF"/>
<stop offset="1" stop-color="#F4FFAE"/>
</linearGradient>
<linearGradient id="paint1_linear_720_666" x1="137.267" y1="63.9935" x2="165.084" y2="76.2623" gradientUnits="userSpaceOnUse">
<stop stop-color="#FFA1F6"/>
<stop offset="1" stop-color="#5C9DFF"/>
</linearGradient>
</defs>
</svg>
