<svg width="600" height="36" viewBox="0 0 600 36" fill="none" xmlns="http://www.w3.org/2000/svg">
<path d="M0.46875 1.0625H6.75L17.4844 27.3594H17.9062L28.6406 1.0625H34.9219V35H30V10.4844H29.6719L19.7344 34.9531H15.6562L5.67188 10.4375H5.39062V35H0.46875V1.0625ZM71.3438 18.0312C71.3438 28.8594 64.8281 35.4688 56.0625 35.4688C47.2031 35.4688 40.7344 28.8594 40.7344 18.0312C40.7344 7.15625 47.2031 0.59375 56.0625 0.59375C64.8281 0.59375 71.3438 7.15625 71.3438 18.0312ZM66.2344 18.0312C66.2344 9.78125 61.875 5.32812 56.0625 5.32812C50.2031 5.32812 45.8438 9.78125 45.8438 18.0312C45.8438 26.2812 50.2031 30.7344 56.0625 30.7344C61.875 30.7344 66.2344 26.2812 66.2344 18.0312ZM100.125 12.125C99.2812 7.76562 95.6719 5.32812 91.3594 5.32812C85.5 5.32812 81.1406 9.82812 81.1406 18.0312C81.1406 26.2812 85.5469 30.7344 91.3594 30.7344C95.625 30.7344 99.2344 28.3438 100.125 24.0312L105.328 24.0781C104.25 30.7812 98.7656 35.4688 91.3125 35.4688C82.4531 35.4688 76.0312 28.8594 76.0312 18.0312C76.0312 7.15625 82.5 0.59375 91.3125 0.59375C98.4844 0.59375 104.156 4.8125 105.328 12.125H100.125ZM110.906 35V1.0625H116.062V17.2344H116.484L130.688 1.0625H137.156L123.469 16.3438L137.203 35H130.969L120.047 19.8594L116.062 24.4531V35H110.906ZM158.297 1.0625V35H153.141V1.0625H158.297ZM192.562 1.0625V35H187.828L170.625 10.2031H170.344V35H165.188V1.0625H169.969L187.172 25.9062H187.5V1.0625H192.562ZM197.812 5.51562V1.0625H224.109V5.51562H213.562V35H208.406V5.51562H197.812ZM229.359 35V1.0625H250.641V5.51562H234.516V15.7812H249.516V20.1875H234.516V30.5469H250.828V35H229.359ZM256.969 35V1.0625H269.062C276.938 1.0625 280.828 5.46875 280.828 11.7031C280.828 16.2734 278.766 19.7422 274.641 21.2656L282.141 35H276.281L269.391 22.2031H269.062H262.125V35H256.969ZM262.125 17.75H268.547C273.562 17.75 275.625 15.5469 275.625 11.7031C275.625 7.85938 273.562 5.46875 268.547 5.46875H262.125V17.75ZM288.703 1.0625L298.125 28.6719H298.5L307.922 1.0625H313.5L301.266 35H295.312L283.125 1.0625H288.703ZM322.969 1.0625V35H317.812V1.0625H322.969ZM329.859 35V1.0625H351.141V5.51562H335.016V15.7812H350.016V20.1875H335.016V30.5469H351.328V35H329.859ZM364.172 35L354.75 1.0625H360.188L366.797 27.3125H367.078L373.969 1.0625H379.312L386.203 27.3125H386.484L393.094 1.0625H398.531L389.109 35H383.906L376.781 9.64062H376.5L369.375 35H364.172ZM432.938 10.0156C432.609 6.875 429.844 5.04688 425.953 5.04688C421.781 5.04688 419.156 7.15625 419.156 10.0625C419.156 13.2969 422.672 14.5156 425.344 15.1719L428.625 16.0625C432.984 17.0938 438.375 19.4844 438.422 25.625C438.375 31.3438 433.828 35.5625 425.812 35.5625C418.219 35.5625 413.438 31.7656 413.109 25.5781H418.266C418.594 29.2812 421.828 31.0625 425.812 31.0625C430.125 31.0625 433.266 28.8594 433.312 25.5312C433.266 22.5781 430.5 21.3594 426.891 20.4219L422.859 19.3438C417.422 17.8438 414 15.0781 414 10.3438C414 4.48438 419.25 0.59375 426.094 0.59375C432.984 0.59375 437.812 4.53125 437.953 10.0156H432.938ZM443.953 35V1.0625H465.234V5.51562H449.109V15.7812H464.109V20.1875H449.109V30.5469H465.422V35H443.953ZM471.562 35V1.0625H483.656C491.531 1.0625 495.422 5.46875 495.422 11.7031C495.422 16.2734 493.359 19.7422 489.234 21.2656L496.734 35H490.875L483.984 22.2031H483.656H476.719V35H471.562ZM476.719 17.75H483.141C488.156 17.75 490.219 15.5469 490.219 11.7031C490.219 7.85938 488.156 5.46875 483.141 5.46875H476.719V17.75ZM503.297 1.0625L512.719 28.6719H513.094L522.516 1.0625H528.094L515.859 35H509.906L497.719 1.0625H503.297ZM537.562 1.0625V35H532.406V1.0625H537.562ZM567.422 12.125C566.578 7.76562 562.969 5.32812 558.656 5.32812C552.797 5.32812 548.438 9.82812 548.438 18.0312C548.438 26.2812 552.844 30.7344 558.656 30.7344C562.922 30.7344 566.531 28.3438 567.422 24.0312L572.625 24.0781C571.547 30.7812 566.062 35.4688 558.609 35.4688C549.75 35.4688 543.328 28.8594 543.328 18.0312C543.328 7.15625 549.797 0.59375 558.609 0.59375C565.781 0.59375 571.453 4.8125 572.625 12.125H567.422ZM578.203 35V1.0625H599.484V5.51562H583.359V15.7812H598.359V20.1875H583.359V30.5469H599.672V35H578.203Z" fill="url(#paint0_linear_711_993)"/>
<defs>
<linearGradient id="paint0_linear_711_993" x1="-3" y1="17.5" x2="603" y2="17.5" gradientUnits="userSpaceOnUse">
<stop stop-color="#AFFFE7"/>
<stop offset="0.5" stop-color="#FF97EE"/>
<stop offset="1" stop-color="#5A8EFF"/>
</linearGradient>
</defs>
</svg>
