<svg width="66" height="66" viewBox="0 0 66 66" fill="none" xmlns="http://www.w3.org/2000/svg">
<g clip-path="url(#clip0_561_413)">
<path d="M32.4989 10C30.3961 10 28.3794 10.8353 26.8925 12.3222C25.4056 13.8091 24.5703 15.8258 24.5703 17.9286V36.4286C24.5703 38.5314 25.4056 40.548 26.8925 42.0349C28.3794 43.5218 30.3961 44.3571 32.4989 44.3571C34.6017 44.3571 36.6183 43.5218 38.1052 42.0349C39.5921 40.548 40.4275 38.5314 40.4275 36.4286V17.9286C40.4275 15.8258 39.5921 13.8091 38.1052 12.3222C36.6183 10.8353 34.6017 10 32.4989 10Z" stroke="white" stroke-width="5" stroke-linecap="round" stroke-linejoin="round"/>
<path d="M51 31.1426V36.4283C51 41.3348 49.0509 46.0403 45.5815 49.5098C42.1121 52.9792 37.4065 54.9283 32.5 54.9283M32.5 54.9283C27.5935 54.9283 22.8879 52.9792 19.4185 49.5098C15.9491 46.0403 14 41.3348 14 36.4283V31.1426M32.5 54.9283V62.8569" stroke="white" stroke-width="5" stroke-linecap="round" stroke-linejoin="round"/>
</g>
<defs>
<clipPath id="clip0_561_413">
<rect width="66" height="66" fill="white"/>
</clipPath>
</defs>
</svg>
