<svg width="66" height="66" viewBox="0 0 66 66" fill="none" xmlns="http://www.w3.org/2000/svg">
<path d="M44 23.375C47.6657 28.2645 47.6657 37.7355 44 42.625M52.25 13.75C63.217 24.222 63.283 41.8468 52.25 52.25M5.5 41.1373V24.86C5.5 23.2815 6.732 22 8.25 22H18.1115C18.4754 21.9987 18.8353 21.9238 19.1695 21.7796C19.5036 21.6355 19.8051 21.4251 20.0558 21.1613L28.3058 11.8443C30.0383 10.0403 33 11.319 33 13.8683V52.1318C33 54.7003 30.0025 55.968 28.281 54.1283L20.0585 44.8635C19.8071 44.5922 19.5026 44.3755 19.1638 44.2269C18.8251 44.0784 18.4594 44.0011 18.0895 44H8.25C6.732 44 5.5 42.7185 5.5 41.1373Z" stroke="white" stroke-width="5" stroke-linecap="round" stroke-linejoin="round"/>
</svg>
